<svg width="24" height="24" viewBox="0 0 24 24" fill="none" xmlns="http://www.w3.org/2000/svg">
    <path
        d="M1.77002 19.462V18.462H22.23V19.462H1.77002ZM4.61602 17.462C4.15535 17.462 3.77102 17.3077 3.46302 16.999C3.15502 16.6903 3.00069 16.306 3.00002 15.846V6.07701C3.00002 5.61701 3.15435 5.23267 3.46302 4.92401C3.77169 4.61534 4.15569 4.46134 4.61502 4.46201H19.385C19.845 4.46201 20.229 4.61601 20.537 4.92401C20.845 5.23201 20.9994 5.61634 21 6.07701V15.847C21 16.307 20.8457 16.691 20.537 16.999C20.2284 17.307 19.844 17.4613 19.384 17.462H4.61602ZM4.61602 16.462H19.385C19.5384 16.462 19.6794 16.3977 19.808 16.269C19.9367 16.1403 20.0007 15.9993 20 15.846V6.07701C20 5.92367 19.936 5.78267 19.808 5.65401C19.6794 5.52534 19.538 5.46101 19.384 5.46101H4.61602C4.46202 5.46101 4.32069 5.52534 4.19202 5.65401C4.06402 5.78201 4.00002 5.92301 4.00002 6.07701V15.847C4.00002 16.0003 4.06402 16.141 4.19202 16.269C4.32002 16.397 4.46102 16.4613 4.61502 16.462"
        fill="white" />
</svg>