<svg width="24" height="24" viewBox="0 0 24 24" fill="none" xmlns="http://www.w3.org/2000/svg">
    <path d="M18 7V17" stroke="white" stroke-width="1.5" stroke-linecap="round" stroke-linejoin="round" />
    <path
        d="M6.972 5.267C6.88355 5.1971 6.77719 5.15354 6.66513 5.1413C6.55306 5.12907 6.43981 5.14865 6.33836 5.19781C6.23691 5.24697 6.15136 5.32372 6.09152 5.41926C6.03167 5.51479 5.99996 5.62526 6 5.738V18.262C6.00014 18.3746 6.032 18.485 6.09191 18.5804C6.15183 18.6758 6.23739 18.7524 6.33881 18.8014C6.44022 18.8504 6.5534 18.8699 6.66537 18.8577C6.77735 18.8454 6.88362 18.8018 6.972 18.732L14.903 12.471C14.9742 12.4148 15.0317 12.3433 15.0712 12.2617C15.1108 12.1801 15.1313 12.0907 15.1313 12C15.1313 11.9093 15.1108 11.8199 15.0712 11.7383C15.0317 11.6567 14.9742 11.5852 14.903 11.529L6.972 5.267Z"
        fill="white" stroke="white" stroke-width="1.5" stroke-linecap="round" stroke-linejoin="round" />
</svg>