<svg width="24" height="24" viewBox="0 0 24 24" fill="none" xmlns="http://www.w3.org/2000/svg">
    <path
        d="M16.5 8.25H21M16.5 11.25H21M16.5 5.25H21M3.75 21V20.25C3.75 18.6587 4.38214 17.1326 5.50736 16.0074C6.63258 14.8821 8.1587 14.25 9.75 14.25H11.25C12.8413 14.25 14.3674 14.8821 15.4926 16.0074C16.6179 17.1326 17.25 18.6587 17.25 20.25V21M14.25 7.5C14.25 8.49456 13.8549 9.44839 13.1517 10.1517C12.4484 10.8549 11.4946 11.25 10.5 11.25C9.50544 11.25 8.55161 10.8549 7.84835 10.1517C7.14509 9.44839 6.75 8.49456 6.75 7.5C6.75 6.50544 7.14509 5.55161 7.84835 4.84835C8.55161 4.14509 9.50544 3.75 10.5 3.75C11.4946 3.75 12.4484 4.14509 13.1517 4.84835C13.8549 5.55161 14.25 6.50544 14.25 7.5Z"
        stroke="#626262" stroke-width="2" stroke-linejoin="round" />
</svg>