<svg width="24" height="24" viewBox="0 0 24 24" fill="none" xmlns="http://www.w3.org/2000/svg">
    <path fill-rule="evenodd" clip-rule="evenodd"
        d="M2.25 6C2.25 5.80109 2.32902 5.61032 2.46967 5.46967C2.61032 5.32902 2.80109 5.25 3 5.25H21C21.1989 5.25 21.3897 5.32902 21.5303 5.46967C21.671 5.61032 21.75 5.80109 21.75 6C21.75 6.19891 21.671 6.38968 21.5303 6.53033C21.3897 6.67098 21.1989 6.75 21 6.75H3C2.80109 6.75 2.61032 6.67098 2.46967 6.53033C2.32902 6.38968 2.25 6.19891 2.25 6ZM2.25 10C2.25 9.80109 2.32902 9.61032 2.46967 9.46967C2.61032 9.32902 2.80109 9.25 3 9.25H21C21.1989 9.25 21.3897 9.32902 21.5303 9.46967C21.671 9.61032 21.75 9.80109 21.75 10C21.75 10.1989 21.671 10.3897 21.5303 10.5303C21.3897 10.671 21.1989 10.75 21 10.75H3C2.80109 10.75 2.61032 10.671 2.46967 10.5303C2.32902 10.3897 2.25 10.1989 2.25 10ZM19.205 13.443L19.295 13.495C20.084 13.95 20.737 14.328 21.204 14.681C21.679 15.041 22.105 15.481 22.216 16.109C22.261 16.368 22.261 16.632 22.216 16.891C22.105 17.519 21.679 17.959 21.204 18.319C20.737 18.672 20.084 19.049 19.294 19.505L19.205 19.557C18.417 20.012 17.763 20.39 17.224 20.617C16.674 20.849 16.08 20.997 15.48 20.779C15.2341 20.6885 15.0055 20.5566 14.804 20.389C14.314 19.979 14.147 19.389 14.073 18.798C14 18.218 14 17.463 14 16.552V16.448C14 15.538 14 14.783 14.073 14.202C14.147 13.611 14.315 13.022 14.803 12.612C15.0063 12.4413 15.232 12.311 15.48 12.221C16.08 12.002 16.674 12.151 17.224 12.383C17.763 12.61 18.416 12.988 19.205 13.443ZM16.641 13.765C16.199 13.579 16.051 13.609 15.994 13.63C15.9121 13.6607 15.8357 13.7046 15.768 13.76C15.721 13.8 15.621 13.913 15.561 14.389C15.501 14.865 15.5 15.524 15.5 16.5C15.5 17.476 15.501 18.135 15.561 18.611C15.621 19.087 15.721 19.201 15.768 19.24C15.8354 19.2953 15.9114 19.3392 15.993 19.37C16.051 19.39 16.199 19.42 16.641 19.235C17.083 19.049 17.655 18.72 18.5 18.232C19.345 17.744 19.916 17.413 20.298 17.124C20.68 16.835 20.728 16.691 20.738 16.63C20.7522 16.5439 20.7522 16.4561 20.738 16.37C20.728 16.31 20.68 16.166 20.298 15.876C19.916 15.586 19.345 15.256 18.5 14.768C17.655 14.28 17.083 13.951 16.641 13.765ZM2.25 14C2.25 13.8011 2.32902 13.6103 2.46967 13.4697C2.61032 13.329 2.80109 13.25 3 13.25H11C11.1989 13.25 11.3897 13.329 11.5303 13.4697C11.671 13.6103 11.75 13.8011 11.75 14C11.75 14.1989 11.671 14.3897 11.5303 14.5303C11.3897 14.671 11.1989 14.75 11 14.75H3C2.80109 14.75 2.61032 14.671 2.46967 14.5303C2.32902 14.3897 2.25 14.1989 2.25 14ZM2.25 18C2.25 17.8011 2.32902 17.6103 2.46967 17.4697C2.61032 17.329 2.80109 17.25 3 17.25H11C11.1989 17.25 11.3897 17.329 11.5303 17.4697C11.671 17.6103 11.75 17.8011 11.75 18C11.75 18.1989 11.671 18.3897 11.5303 18.5303C11.3897 18.671 11.1989 18.75 11 18.75H3C2.80109 18.75 2.61032 18.671 2.46967 18.5303C2.32902 18.3897 2.25 18.1989 2.25 18Z"
        fill="#626262" />
</svg>