<svg width="24" height="24" viewBox="0 0 24 24" fill="none" xmlns="http://www.w3.org/2000/svg">
    <path d="M6 7V17" stroke="white" stroke-width="1.5" stroke-linecap="round" stroke-linejoin="round" />
    <path
        d="M17.028 5.267C17.1165 5.1971 17.2228 5.15354 17.3349 5.1413C17.447 5.12907 17.5602 5.14865 17.6617 5.19781C17.7631 5.24697 17.8487 5.32372 17.9085 5.41926C17.9683 5.51479 18.0001 5.62526 18 5.738V18.262C17.9999 18.3746 17.968 18.485 17.9081 18.5804C17.8482 18.6758 17.7626 18.7524 17.6612 18.8014C17.5598 18.8504 17.4466 18.8699 17.3346 18.8577C17.2227 18.8454 17.1164 18.8018 17.028 18.732L9.09702 12.471C9.02585 12.4148 8.96834 12.3433 8.9288 12.2617C8.88926 12.1801 8.86871 12.0907 8.86871 12C8.86871 11.9093 8.88926 11.8199 8.9288 11.7383C8.96834 11.6567 9.02585 11.5852 9.09702 11.529L17.028 5.267Z"
        fill="white" stroke="white" stroke-width="1.5" stroke-linecap="round" stroke-linejoin="round" />
</svg>