<svg width="24" height="24" viewBox="0 0 24 24" fill="none" xmlns="http://www.w3.org/2000/svg">
    <path
        d="M3 15C3 12.191 3 10.787 3.674 9.778C3.96591 9.34106 4.34106 8.96591 4.778 8.674C5.787 8 7.19 8 10 8H14C16.809 8 18.213 8 19.222 8.674C19.6589 8.96591 20.0341 9.34106 20.326 9.778C21 10.787 21 12.19 21 15C21 17.81 21 19.213 20.326 20.222C20.0341 20.6589 19.6589 21.0341 19.222 21.326C18.213 22 16.81 22 14 22H10C7.191 22 5.787 22 4.778 21.326C4.34106 21.0341 3.96591 20.6589 3.674 20.222C3 19.213 3 17.81 3 15Z"
        stroke="#626262" stroke-width="1.5" stroke-linecap="round" stroke-linejoin="round" />
    <path
        d="M12.5 16.5C12.5 16.697 12.4612 16.892 12.3858 17.074C12.3104 17.256 12.1999 17.4214 12.0607 17.5607C11.9214 17.6999 11.756 17.8104 11.574 17.8858C11.392 17.9612 11.197 18 11 18C10.803 18 10.608 17.9612 10.426 17.8858C10.244 17.8104 10.0786 17.6999 9.93934 17.5607C9.80005 17.4214 9.68956 17.256 9.61418 17.074C9.5388 16.892 9.5 16.697 9.5 16.5C9.5 16.1022 9.65804 15.7206 9.93934 15.4393C10.2206 15.158 10.6022 15 11 15C11.3978 15 11.7794 15.158 12.0607 15.4393C12.342 15.7206 12.5 16.1022 12.5 16.5ZM12.5 16.5V11.5C12.5 11.5 12.9 13.233 14.5 13.5M19 8C18.982 6.76 18.89 6.057 18.418 5.586C17.832 5 16.888 5 15.002 5H8.998C7.111 5 6.168 5 5.582 5.586C5.11 6.057 5.018 6.76 5 8M17 5C17 4.068 17 3.602 16.848 3.235C16.7475 2.99218 16.6001 2.77155 16.4143 2.58572C16.2284 2.3999 16.0078 2.25251 15.765 2.152C15.398 2 14.932 2 14 2H10C9.068 2 8.602 2 8.235 2.152C7.99218 2.25251 7.77155 2.3999 7.58572 2.58572C7.3999 2.77155 7.25251 2.99218 7.152 3.235C7 3.602 7 4.068 7 5"
        stroke="#626262" stroke-width="1.5" stroke-linecap="round" stroke-linejoin="round" />
</svg>